PathFileType	4	(X/Y/Z)	..\data\2015026\dynamic\2015026_C5_03.trc
DataRate	CameraRate	NumFrames	NumMarkers	Units	OrigDataRate	OrigDataStartFrame	OrigNumFrames
100.000000	100.000000	4	48	mm	100.000000	102	136
Frame#	Time	L_IAS			L_IPS			R_IPS			R_IAS			L_FTC			L_FLE			L_FAX			L_TTC			L_FAL			L_FCC			L_FM1			L_FM2			L_FM5			R_FTC			R_FLE			R_FAX			R_TTC			R_FAL			R_FCC			R_FM1			R_FM2			R_FM5			CV7			TV10			SXS			SJN			L_SIA			L_SRS			L_SAA			L_SAE			L_HLE			L_HME			L_UOA			L_RSP			L_UHE			L_HM2			L_HM5			R_SIA			R_SRS			R_SAA			R_SAE			R_HLE			R_HME			R_UOA			R_RSP			R_UHE			R_HM2			R_HM5			
		X1	Y1	Z1	X2	Y2	Z2	X3	Y3	Z3	X4	Y4	Z4	X5	Y5	Z5	X6	Y6	Z6	X7	Y7	Z7	X8	Y8	Z8	X9	Y9	Z9	X10	Y10	Z10	X11	Y11	Z11	X12	Y12	Z12	X13	Y13	Z13	X14	Y14	Z14	X15	Y15	Z15	X16	Y16	Z16	X17	Y17	Z17	X18	Y18	Z18	X19	Y19	Z19	X20	Y20	Z20	X21	Y21	Z21	X22	Y22	Z22	X23	Y23	Z23	X24	Y24	Z24	X25	Y25	Z25	X26	Y26	Z26	X27	Y27	Z27	X28	Y28	Z28	X29	Y29	Z29	X30	Y30	Z30	X31	Y31	Z31	X32	Y32	Z32	X33	Y33	Z33	X34	Y34	Z34	X35	Y35	Z35	X36	Y36	Z36	X37	Y37	Z37	X38	Y38	Z38	X39	Y39	Z39	X40	Y40	Z40	X41	Y41	Z41	X42	Y42	Z42	X43	Y43	Z43	X44	Y44	Z44	X45	Y45	Z45	X46	Y46	Z46	X47	Y47	Z47	X48	Y48	Z48	

103	1.02	480.4464721679689	916.2932739257815	74.55905914306648	293.0319519042969	922.2002563476565	141.5499725341797	304.1010131835938	935.3371582031252	256.4114074707032	498.0410461425782	929.5496215820315	294.392547607422	405.8983459472657	830.5076904296877	14.13192081451421	365.2767333984376	420.4762268066407	55.75548553466803	312.3865356445313	403.3472595214845	55.05846405029302	356.3513183593751	344.1758422851563	97.5270080566407	34.10623168945312	209.5025939941407	76.21841430664064	-21.43118667602541	224.1036529541016	121.2352600097657	49.24794387817382	61.27553176879884	162.3272094726563	58.92887115478516	58.03660202026369	112.3441772460938	23.81422615051269	76.20115661621095	63.49545288085939	424.1301574707032	844.0125122070315	367.4572143554689	578.3460083007814	465.4440917968751	276.6919250488282	563.1223754882814	402.479217529297	281.5763549804689	612.3496093750001	398.4322814941407	224.4211425781251	555.3385009765626	57.95209884643556	260.2055664062501	508.6945800781251	14.33119869232178	222.040496826172	701.3786010742189	15.41529846191407	166.9622192382814	707.1240234375001	28.39619445800782	222.5499114990236	668.0453491210939	11.39859771728516	275.9175415039064	329.0783691406251	1409.341430664063	193.9260864257813	260.8048095703126	1169.969360351563	179.437240600586	486.6029357910157	1111.793701171875	172.4844665527345	452.0365600585939	1327.480834960938	180.5361480712891	258.3114624023438	1207.617797851563	98.10444641113287	279.2423706054688	1342.674072265625	105.2627258300782	324.0097656250001	1353.5380859375	20.95504760742192	364.8229675292969	1354.37060546875	2.20083880424504	388.9174194335939	1045.752319335938	-76.99344635009763	343.0678710937501	1025.141235351563	-7.710500240325888	349.7528076171876	1017.352355957031	-55.62834930419919	537.2257690429689	860.3145751953127	6.452175617218085	481.6912231445314	831.9566650390627	-41.96585464477534	588.7210693359376	796.592712402344	8.773819923400954	505.8284301757814	761.5259399414064	-34.63087081909174	259.3076477050781	1205.108154296875	261.0359497070314	285.2485961914062	1337.23974609375	237.0601501464845	336.270751953125	1347.536499023438	341.9209289550782	389.1554260253907	1343.283081054688	365.4202575683595	302.6333312988281	1042.3212890625	414.9491271972658	277.0730590820312	1032.043212890625	341.4517211914064	269.2423095703125	1030.256225585938	386.464569091797	326.1109008789062	787.9895629882815	423.9805603027345	249.5218353271484	808.3834228515627	431.5270996093752	303.7547302246094	700.2168579101564	429.4773864746095	215.1972808837891	748.0378417968751	432.8022766113282	
104	1.03	497.6735229492189	919.670593261719	75.19161987304695	310.6433105468751	924.6291503906252	142.3350677490235	321.3754272460938	938.6033935546877	256.9858703613282	515.2807617187501	933.2129516601565	295.3037414550782	424.8029174804689	833.5856933593752	15.26489257812506	397.7740478515626	421.950408935547	53.37269973754889	345.8301391601563	405.4998779296876	53.08165359497076	390.1199035644532	345.5960388183594	94.21740722656256	65.94876861572266	215.0279998779297	76.45317840576175	11.0415630340576	229.6932373046876	122.4295883178711	81.82779693603516	65.28322601318361	158.9367828369141	90.21977233886719	62.27153778076173	109.0979995727539	54.30056762695313	82.13869476318361	61.59639739990237	441.3689270019532	847.6691894531252	368.3457031250001	586.4798583984376	465.3440246582032	277.2743530273439	569.7712402343751	402.5691833496095	282.1810913085939	618.8900146484376	397.7575073242189	225.2206115722658	555.8634033203126	58.22783279418947	260.3770751953126	509.0015258789064	14.72297859191895	222.3552093505861	701.4863281250001	14.81245708465577	167.1794433593751	707.4922485351564	28.24453735351563	222.8441009521486	668.3237304687501	11.66776657104492	276.7176818847657	346.3013305664063	1412.564208984375	194.2810974121095	278.1723937988282	1172.885620117188	180.0726623535157	503.599578857422	1114.841064453125	172.6820068359376	469.2370910644532	1330.660034179688	180.760726928711	275.6241455078126	1210.501831054688	98.26702880859381	296.2222290039063	1345.85791015625	105.8612289428712	340.8314819335938	1356.633178710938	21.49728965759282	381.5817565917969	1357.29833984375	2.565727233886766	402.5308837890626	1047.692626953125	-74.91677093505857	358.4979248046876	1028.29931640625	-4.493896484374957	363.8064270019532	1020.405578613281	-52.68760299682614	547.3481445312501	857.871520996094	4.796902656555243	489.4709777832032	831.487487792969	-42.32386398315425	596.6382446289064	791.7545166015627	5.542131900787427	510.9070129394532	760.1845092773439	-35.91230773925776	276.7489929199219	1208.192016601563	261.8478088378907	302.6212463378906	1340.445068359375	237.7407684326173	354.1338806152344	1350.739990234375	342.5984191894532	407.3189392089844	1346.401733398438	365.6866760253907	325.1451416015625	1044.108642578125	415.5576477050783	298.9838562011719	1033.484252929688	342.1919250488282	291.5280456542969	1031.660766601563	387.188690185547	353.0970764160156	790.2901611328127	423.9427795410158	276.1875915527344	809.2170410156252	431.9470520019533	332.577392578125	702.1935424804689	429.6602783203127	243.0572662353516	748.1891479492189	433.5030517578127	
105	1.04	514.6817626953126	923.3828735351565	75.66808319091804	328.0638427734376	927.335632324219	143.1473846435547	338.5509948730469	941.913757324219	257.5827941894532	532.3377685546876	936.7210693359377	296.1196899414064	443.0255126953126	837.181579589844	16.40609169006353	430.2661437988282	424.2402648925782	51.09561157226569	379.3397521972657	408.034149169922	51.24337005615241	424.200897216797	347.8417053222657	91.27446746826179	99.34424591064455	218.8273315429688	77.01951599121097	44.86710357666015	232.6757812500001	123.8175735473633	118.3424682617188	68.18357086181642	155.5299377441407	125.5343399047852	65.89321899414064	105.7440719604493	88.47100067138672	86.87782287597658	59.57123947143558	458.3003234863282	851.1255493164065	369.1051025390626	593.4873657226564	465.134979248047	277.9049072265626	575.3031616210939	402.5478820800782	282.789031982422	624.4238891601564	397.0618591308595	226.1131896972658	556.2850341796876	58.48540496826173	260.5581359863282	509.3285217285157	15.05245685577393	222.612518310547	701.5700683593751	14.81101036071778	167.4783477783204	707.7402954101564	28.54584121704102	223.1945953369142	668.5825805664064	12.18366718292237	277.4171447753907	363.3217468261719	1415.892944335938	194.5231170654298	295.4617309570313	1175.863647460938	180.7245635986329	520.3988647460939	1118.0078125	172.7925720214845	486.2667541503907	1333.946166992188	180.8919677734376	292.7414550781251	1213.446655273438	98.54460906982429	313.0058288574219	1349.063720703125	106.4154510498048	357.3745422363282	1359.756103515625	21.99063491821294	398.0305786132814	1360.294311523438	2.829205989837696	415.8638916015626	1049.753051757813	-72.81958770751949	373.7016906738282	1031.605590820313	-1.360176324844315	377.6529235839844	1023.611572265625	-49.79856491088864	556.8046875000001	855.5781250000002	3.091519832611153	496.7459716796876	831.273132324219	-42.70018005371088	603.7901611328126	787.2024536132815	2.373853445053175	515.4475097656251	759.1892700195314	-37.14894485473627	294.0700988769531	1211.36181640625	262.6094055175782	319.8023376464844	1343.7373046875	238.3120880126954	371.7728271484375	1354.113891601563	343.155975341797	425.2485351562501	1349.737670898438	365.8444824218751	347.9013061523438	1046.039306640625	416.061004638672	321.0266723632812	1035.047485351563	342.8622436523439	313.994873046875	1033.16845703125	387.8824157714845	380.605224609375	792.9088134765627	423.6776123046877	303.3960571289062	810.2200927734377	432.2792053222658	362.1381530761719	704.5117187500001	429.7419738769533	271.6065979003906	748.4782104492189	434.2759399414064	
106	1.05	531.5425415039064	927.361999511719	76.04618835449227	345.3266296386719	930.273864746094	143.9464874267579	355.6783447265625	945.206237792969	258.1804199218751	549.2439575195314	940.0041503906252	296.8545837402345	460.6405334472657	841.1909790039065	17.50209236145026	462.6594543457032	427.2895507812501	48.96717453002937	412.7770385742189	410.8620910644532	49.58319473266608	458.4967651367189	350.8693847656251	88.71784973144538	134.10302734375	220.7610626220704	77.85112762451175	79.85900115966797	232.9886474609376	125.3280639648438	158.3408508300781	69.8441848754883	152.2144165039063	164.470443725586	68.68568420410158	102.4084930419922	125.9941177368164	90.16986083984376	57.4971733093262	474.9540100097657	854.3187255859377	369.7295532226564	599.4958496093751	464.8370666503907	278.5307922363282	579.8652954101564	402.4447631835939	283.3596801757814	629.0554199218751	396.3506469726564	227.0023498535158	556.6046752929689	58.69917297363283	260.7235717773439	509.6136779785157	15.32216548919678	222.8118438720704	701.6246337890626	15.19652843475342	167.7793579101564	707.8889770507814	29.10034179687501	223.5293273925783	668.8032226562501	12.79342842102051	277.9690856933595	380.1649780273438	1419.255004882813	194.6691894531251	312.7057800292969	1178.84423828125	181.4107666015626	537.0548095703126	1121.256469726563	172.8429565429688	503.1557617187501	1337.28271484375	180.959686279297	309.7001953125001	1216.384887695313	98.97477722167976	329.6264953613282	1352.214599609375	106.9511260986329	373.6743164062501	1362.842041015625	22.46274375915532	414.2020874023439	1363.30419921875	3.021311283111624	428.9349670410157	1051.9013671875	-70.74108123779293	388.6333007812501	1035.012817382813	1.638039231300402	391.272186279297	1026.923583984375	-47.00983428955074	565.6402587890626	853.4595947265627	1.356218695640633	503.6021118164064	831.307800292969	-43.10448455810541	610.2419433593751	782.992126464844	-0.6846847534178941	519.5713500976564	758.5543212890626	-38.3287620544433	311.3061828613281	1214.556274414063	263.3530273437501	336.8171997070312	1347.041870117188	238.7921142578126	389.1916809082032	1357.598876953125	343.6026306152345	442.9362487792969	1353.248291015625	365.9155578613282	370.8420104980469	1048.098022460938	416.4612121582033	343.1754150390625	1036.720581054688	343.4594726562501	336.5987243652344	1034.744995117188	388.5601806640627	408.5792236328126	795.847595214844	423.1874084472658	331.0933837890625	811.3855590820315	432.5037231445314	392.3892517089844	707.1795043945314	429.7029418945314	300.7994384765625	748.8986206054689	435.0781250000002	
